<svg width="178" height="178" viewBox="0 0 178 178" fill="none" xmlns="http://www.w3.org/2000/svg">
<rect width="178" height="178" rx="8" fill="#EFF6FF"/>
<path d="M57.4937 53.3234L21.3717 72.2638C18.2793 73.8852 17.0869 77.7066 18.7084 80.799L46.7008 134.185C48.3223 137.277 52.1436 138.469 55.236 136.848L91.3579 117.908C94.4503 116.286 95.6427 112.465 94.0213 109.372L66.0289 55.9868C64.4074 52.8944 60.586 51.702 57.4937 53.3234Z" fill="#DCFCE7"/>
<path d="M91.2832 49.4245L50.6095 52.4542C47.1275 52.7136 44.515 55.7466 44.7743 59.2287L49.252 119.341C49.5114 122.824 52.5444 125.436 56.0265 125.177L96.7002 122.147C100.182 121.888 102.795 118.855 102.535 115.372L98.0577 55.2597C97.7983 51.7776 94.7653 49.1651 91.2832 49.4245Z" fill="#B9F8CF"/>
<path d="M128.019 59.7562L89.5812 46.1146C86.2906 44.9467 82.6763 46.6676 81.5085 49.9582L61.3471 106.766C60.1793 110.057 61.9001 113.671 65.1907 114.839L103.628 128.48C106.919 129.648 110.533 127.927 111.701 124.637L131.862 67.829C133.03 64.5384 131.309 60.9241 128.019 59.7562Z" fill="#05DF72"/>
<path d="M154.145 78.619L121.359 54.3583C118.552 52.2814 114.593 52.873 112.516 55.6799L76.6602 104.136C74.5833 106.943 75.175 110.902 77.9818 112.979L110.768 137.239C113.575 139.316 117.534 138.725 119.611 135.918L155.467 87.4618C157.544 84.655 156.952 80.6959 154.145 78.619Z" fill="#51A2FF"/>
<circle cx="116.686" cy="94.6861" r="10.5" transform="rotate(36.5 116.686 94.6861)" fill="white"/>
<path d="M113.189 95.2087C112.793 95.7446 112.402 97.1138 114.009 98.3035C115.617 99.4931 116.812 98.7187 117.209 98.1828" stroke="#51A2FF" stroke-linecap="round"/>
<circle cx="114.757" cy="90.2138" r="1.71314" transform="rotate(36.5 114.757 90.2138)" fill="#51A2FF"/>
<circle cx="121.641" cy="95.3087" r="1.71314" transform="rotate(36.5 121.641 95.3087)" fill="#51A2FF"/>
</svg>
