<svg width="178" height="178" viewBox="0 0 178 178" fill="none" xmlns="http://www.w3.org/2000/svg">
<path d="M10 168H19.875V178H10L9.48535 177.987C4.37212 177.728 0.271903 173.628 0.0126953 168.515L0 168V158.125H10V168Z" fill="#E5E7EB"/>
<path d="M59.375 178H39.625V168H59.375V178Z" fill="#E5E7EB"/>
<path d="M98.875 178H79.125V168H98.875V178Z" fill="#E5E7EB"/>
<path d="M138.375 178H118.625V168H138.375V178Z" fill="#E5E7EB"/>
<path d="M178 168C178 173.35 173.798 177.719 168.515 177.987L168 178H158.125V168H168V158.125H178V168Z" fill="#E5E7EB"/>
<path d="M10 138.375H0V118.625H10V138.375Z" fill="#E5E7EB"/>
<path d="M178 138.375H168V118.625H178V138.375Z" fill="#E5E7EB"/>
<path d="M89 41C91.2091 41 93 42.7909 93 45V85H133C135.209 85 137 86.7909 137 89C137 91.2091 135.209 93 133 93H93V133C93 135.209 91.2091 137 89 137C86.7909 137 85 135.209 85 133V93H45C42.7909 93 41 91.2091 41 89C41 86.7909 42.7909 85 45 85H85V45C85 42.7909 86.7909 41 89 41Z" fill="#E5E7EB"/>
<path d="M10 98.875H0V79.125H10V98.875Z" fill="#E5E7EB"/>
<path d="M178 98.875H168V79.125H178V98.875Z" fill="#E5E7EB"/>
<path d="M10 59.375H0V39.625H10V59.375Z" fill="#E5E7EB"/>
<path d="M178 59.375H168V39.625H178V59.375Z" fill="#E5E7EB"/>
<path d="M19.875 10H10V19.875H0V10C0 4.47715 4.47715 1.44958e-07 10 0H19.875V10Z" fill="#E5E7EB"/>
<path d="M168 0C173.523 0 178 4.47715 178 10V19.875H168V10H158.125V0H168Z" fill="#E5E7EB"/>
<path d="M59.375 10H39.625V0H59.375V10Z" fill="#E5E7EB"/>
<path d="M98.875 10H79.125V0H98.875V10Z" fill="#E5E7EB"/>
<path d="M138.375 10H118.625V0H138.375V10Z" fill="#E5E7EB"/>
</svg>
