<svg width="178" height="178" viewBox="0 0 178 178" fill="none" xmlns="http://www.w3.org/2000/svg">
<rect width="178" height="178" rx="10" fill="#EFF6FF"/>
<path d="M18 111.497L43.9941 111.497C46.7556 111.497 48.9941 109.259 48.9941 106.497L48.9941 80.5029C48.9941 77.7415 46.7556 75.5029 43.9941 75.5029L18 75.5029C15.2385 75.5029 13 77.7415 13 80.5029L13 106.497C13 109.259 15.2386 111.497 18 111.497Z" fill="#8EC5FF"/>
<path d="M25.5315 101.634L23.8965 96.157L22.0942 90.7326L26.798 87.4851L31.4 84.0949L35.9421 87.5649L40.5885 90.894L38.6919 96.2861L36.9615 101.734L31.2473 101.596L25.5315 101.634Z" fill="white"/>
<path d="M56.9941 111.497L82.9883 111.497C85.7497 111.497 87.9883 109.258 87.9883 106.497L87.9883 80.5028C87.9883 77.7414 85.7497 75.5028 82.9883 75.5028L56.9941 75.5028C54.2327 75.5028 51.9941 77.7414 51.9941 80.5028L51.9941 106.497C51.9941 109.258 54.2327 111.497 56.9941 111.497Z" fill="#05DF72"/>
<circle cx="69.4941" cy="93.5" r="8.5" fill="white"/>
<path d="M95.9883 111.497L121.982 111.497C124.744 111.497 126.982 109.259 126.982 106.497L126.982 80.5029C126.982 77.7415 124.744 75.5029 121.982 75.5029L95.9883 75.5029C93.2268 75.5029 90.9883 77.7415 90.9883 80.5029L90.9883 106.497C90.9883 109.259 93.2268 111.497 95.9883 111.497Z" fill="#51A2FF"/>
<path d="M103.52 101.634L102.17 96.9195L99.6425 92.7171L103.05 89.1908L105.426 84.9009L110.184 86.0891L115.087 86.0016L116.437 90.716L118.964 94.9185L115.556 98.4447L113.181 102.735L108.423 101.546L103.52 101.634Z" fill="white"/>
<path d="M134.982 111.497L160.977 111.497C163.738 111.497 165.977 109.258 165.977 106.497L165.977 80.5028C165.977 77.7414 163.738 75.5028 160.977 75.5028L134.982 75.5028C132.221 75.5028 129.982 77.7414 129.982 80.5028L129.982 106.497C129.982 109.258 132.221 111.497 134.982 111.497Z" fill="#B9F8CF"/>
<path d="M142.513 101.634L140.878 96.1569L139.076 90.7326L143.779 87.4851L148.381 84.0948L152.924 87.5649L157.57 90.894L155.673 96.2861L153.943 101.734L148.229 101.596L142.513 101.634Z" fill="white"/>
</svg>
