<svg width="178" height="178" viewBox="0 0 178 178" fill="none" xmlns="http://www.w3.org/2000/svg">
<rect width="178" height="178" rx="8" fill="#EFF6FF"/>
<path d="M31 52.8096L31 103.191C31 107.504 35.3862 111 40.7968 111L134.203 111C139.614 111 144 107.504 144 103.191L144 52.8096C144 48.4965 139.614 45.0001 134.203 45.0001L40.7968 45.0001C35.3862 45.0001 31 48.4965 31 52.8096Z" fill="#DCFCE7"/>
<path d="M30 61.0463L30 112.954C30 117.398 34.4638 121 39.9702 121L135.03 121C140.536 121 145 117.398 145 112.954L145 61.0463C145 56.6025 140.536 53.0001 135.03 53.0001L39.9702 53.0001C34.4638 53.0001 30 56.6025 30 61.0463Z" fill="#B9F8CF"/>
<path d="M29 69.1646L29 121.836C29 126.345 33.5802 130 39.2303 130L136.77 130C142.42 130 147 126.345 147 121.836L147 69.1646C147 64.6554 142.42 61.0001 136.77 61.0001L39.2303 61.0001C33.5802 61.0001 29 64.6554 29 69.1646Z" fill="#05DF72"/>
<path d="M27 78.7562L27 135.244C27 140.08 31.6967 144 37.4904 144L137.51 144C143.303 144 148 140.08 148 135.244L148 78.7562C148 73.9203 143.303 70.0001 137.51 70.0001L37.4904 70.0001C31.6967 70.0001 27 73.9203 27 78.7562Z" fill="#51A2FF"/>
<circle cx="87.5" cy="104.5" r="11.5" fill="white"/>
<path d="M92.5 103.634C93.1667 104.019 93.1667 104.981 92.5 105.366L85.75 109.263C85.0833 109.648 84.25 109.167 84.25 108.397L84.25 100.603C84.25 99.8331 85.0833 99.352 85.75 99.7369L92.5 103.634Z" fill="#51A2FF"/>
<rect x="39.5" y="128.5" width="94" height="6" rx="1.5" fill="#8EC5FF" stroke="#8EC5FF" stroke-dasharray="2 2"/>
</svg>
