<svg width="248" height="28" viewBox="0 0 248 28" fill="none" xmlns="http://www.w3.org/2000/svg">
<path fill-rule="evenodd" clip-rule="evenodd" d="M25.6387 0.160156C26.7649 0.160156 27.6777 1.07295 27.6777 2.19922V25.8008C27.6776 26.927 26.7649 27.8398 25.6387 27.8398H2.03711C0.911 27.8397 -0.00186552 26.9269 -0.00195312 25.8008V2.19922C-0.00195312 1.07303 0.910945 0.160281 2.03711 0.160156H25.6387ZM10.0762 8.91602L6.48145 11.4443L7.90332 15.6035L9.19727 19.8047L13.5928 19.7373L17.9873 19.8047L19.2822 15.6035L20.7041 11.4443L17.1084 8.91602L13.5928 6.27832L10.0762 8.91602Z" fill="#51A2FF"/>
<path d="M101.412 7.00879C103.839 7.0088 106.048 7.77006 107.891 9.0752L105.28 13.6631C102.357 10.4682 96.0557 12.4942 96.0557 17.3545C96.0557 21.671 101.902 24.4177 105.28 21.0869L107.802 25.5869C106 26.8036 103.798 27.5644 101.412 27.5645C95.4711 27.5645 90.6584 22.9764 90.6582 17.2666C90.6582 11.5566 95.471 7.00879 101.412 7.00879Z" fill="#51A2FF"/>
<path fill-rule="evenodd" clip-rule="evenodd" d="M213.595 7.0498C219.536 7.0498 224.348 11.6376 224.349 17.3066C224.349 23.0167 219.583 27.5645 213.595 27.5645C207.606 27.5643 202.889 23.0234 202.889 17.3066C202.889 11.59 207.654 7.04992 213.595 7.0498ZM213.643 11.9912C212.337 11.9912 211.032 12.5283 210.135 13.5684C209.102 14.5607 208.606 15.9065 208.605 17.2998C208.605 18.6933 209.102 20.0468 210.135 21.0801C211.032 22.0724 212.337 22.6094 213.643 22.6094C215.036 22.6094 216.253 22.0723 217.238 21.0801C218.183 20.0469 218.68 18.6939 218.68 17.2598C218.68 15.8662 218.183 14.5608 217.238 13.5684C216.246 12.5352 215.036 11.9912 213.643 11.9912Z" fill="#51A2FF"/>
<path fill-rule="evenodd" clip-rule="evenodd" d="M67.5 6.96094C73.1623 6.96115 77.8047 11.5499 77.8047 17.2598C77.8047 17.8918 77.757 18.4763 77.6279 19.1016H63.1426C63.4144 19.822 63.7744 20.4543 64.2637 20.9912C65.2085 22.0244 66.4254 22.5683 67.7305 22.5684C68.9471 22.5684 70.1575 22.0319 71.0615 21.1279L75.29 23.9619H75.2832C73.4411 26.1643 70.6064 27.5575 67.5 27.5576C61.8308 27.5576 57.2013 22.9221 57.2012 17.2598C57.2012 11.5973 61.8376 6.96094 67.5 6.96094ZM67.7168 11.9502C66.4593 11.9503 65.1948 12.4881 64.25 13.4805C63.7131 14.1126 63.3051 14.8739 63.0332 15.6826H72.3535C72.1292 14.8739 71.7211 14.1058 71.1367 13.4805C70.2394 12.488 68.9744 11.9502 67.7168 11.9502Z" fill="#51A2FF"/>
<path fill-rule="evenodd" clip-rule="evenodd" d="M137.711 6.96094C143.373 6.96115 148.009 11.5499 148.009 17.2598C148.009 17.8918 147.961 18.4763 147.832 19.1016H133.347C133.619 19.822 133.978 20.4543 134.468 20.9912C135.413 22.0244 136.63 22.5683 137.935 22.5684C139.151 22.5684 140.362 22.0319 141.266 21.1279L145.494 23.9619C143.652 26.1643 140.817 27.5575 137.711 27.5576C132.042 27.5576 127.412 22.9221 127.412 17.2598C127.412 11.5973 132.049 6.96094 137.711 6.96094ZM137.935 11.9502C136.677 11.9503 135.413 12.4881 134.468 13.4805C133.931 14.1126 133.523 14.8738 133.251 15.6826H142.571C142.347 14.8739 141.939 14.1058 141.354 13.4805C140.457 12.488 139.192 11.9502 137.935 11.9502Z" fill="#51A2FF"/>
<path fill-rule="evenodd" clip-rule="evenodd" d="M161.246 7.04297C163.768 7.04306 166.106 7.94034 167.9 9.46973L168.35 7.62695H172.666V27.0205H167.9V25.1309C166.099 26.6602 163.761 27.5575 161.246 27.5576C155.536 27.5576 150.947 22.969 150.947 17.2998C150.947 11.6307 155.536 7.04297 161.246 7.04297ZM161.959 12.0459C160.606 12.046 159.349 12.5829 158.363 13.5752C157.419 14.5676 156.882 15.9133 156.882 17.3066C156.882 18.7002 157.418 20.0058 158.363 21.0391C159.356 22.0314 160.613 22.5682 161.959 22.5684C163.305 22.5684 164.57 22.0315 165.515 21.0391C166.507 20.0058 166.996 18.7002 166.996 17.3066C166.996 15.9133 166.5 14.5608 165.515 13.5752C164.57 12.5827 163.312 12.0459 161.959 12.0459Z" fill="#51A2FF"/>
<path d="M196.838 20.2705C198.704 20.2708 200.216 21.7837 200.216 23.6494C200.216 25.515 198.703 27.0271 196.838 27.0273C194.972 27.0273 193.459 25.5152 193.459 23.6494C193.459 21.7836 194.972 20.2705 196.838 20.2705Z" fill="#51A2FF"/>
<path d="M53.0146 7.1377C54.1362 7.1377 55.2647 7.31459 56.2979 7.6748L54.0957 12.6709C50.8125 11.2299 47.4821 13.208 46.8975 16.3145V27.0205H41.2754V7.63379H45.6396L46.4482 9.83594C47.8893 7.9464 50.4521 7.13775 53.0146 7.1377Z" fill="#51A2FF"/>
<path d="M123.226 7.1377C124.347 7.1377 125.476 7.31459 126.509 7.6748L124.307 12.6709C121.023 11.2299 117.693 13.208 117.108 16.3145V27.0205H111.486V7.63379H115.851L116.659 9.83594C118.1 7.94639 120.663 7.13775 123.226 7.1377Z" fill="#51A2FF"/>
<path d="M185.936 7.63379H190.436V12.8955H185.936V27.0205H180.226V12.8955H176.174V7.63379H180.226V0.435547H185.936V7.63379Z" fill="#51A2FF"/>
<path d="M238.513 7.08984C243.733 7.08984 248.003 11.6787 248.003 17.3887V27.0137H242.517V17.3887C242.517 14.6016 240.539 12.127 237.84 12.127C235.141 12.1271 233.163 14.6017 233.163 17.3887V27.0137H227.494V7.62695H232.083L232.979 9.33301V9.33984C234.509 7.98721 236.535 7.08997 238.513 7.08984Z" fill="#51A2FF"/>
<path d="M84.1211 19.1289C85.6603 19.129 86.9082 20.3768 86.9082 21.916C86.9082 23.4552 85.6603 24.7031 84.1211 24.7031C82.5819 24.7031 81.334 23.4552 81.334 21.916C81.334 20.3768 82.5819 19.1289 84.1211 19.1289Z" fill="#51A2FF"/>
<path d="M199.741 17.416H193.936V0.435547H199.741V17.416Z" fill="#51A2FF"/>
<path d="M84.1211 7.79004C85.6602 7.79008 86.9081 9.03802 86.9082 10.5771C86.9082 12.1164 85.6603 13.3642 84.1211 13.3643C82.5819 13.3643 81.334 12.1164 81.334 10.5771C81.3341 9.03799 82.5819 7.79004 84.1211 7.79004Z" fill="#51A2FF"/>
</svg>
