<svg width="61" height="55" viewBox="0 0 61 55" fill="none" xmlns="http://www.w3.org/2000/svg">
<path fill-rule="evenodd" clip-rule="evenodd" d="M23.702 4.08534C26.684 -1.21594 34.3166 -1.21595 37.2986 4.08534L59.0618 42.7754C61.9865 47.975 58.2292 54.3995 52.2635 54.3995H8.73714C2.77149 54.3995 -0.985878 47.975 1.93885 42.7755L23.702 4.08534ZM34.4 42.6999C34.4 44.8538 32.6539 46.5999 30.5 46.5999C28.3461 46.5999 26.6 44.8538 26.6 42.6999C26.6 40.546 28.3461 38.7999 30.5 38.7999C32.6539 38.7999 34.4 40.546 34.4 42.6999ZM30.5 11.4999C28.3461 11.4999 26.6 13.246 26.6 15.3999V27.0999C26.6 29.2538 28.3461 30.9999 30.5 30.9999C32.6539 30.9999 34.4 29.2538 34.4 27.0999V15.3999C34.4 13.246 32.6539 11.4999 30.5 11.4999Z" fill="#99A1AF"/>
</svg>
