<svg width="178" height="178" viewBox="0 0 178 178" fill="none" xmlns="http://www.w3.org/2000/svg">
<g clip-path="url(#clip0_1209_8554)">
<rect width="178" height="178" rx="10" fill="#EFF6FF"/>
<path d="M32.1133 62.2281C32.3332 60.7884 33.9695 60.0585 35.1875 60.857L43.2978 66.1743C44.5157 66.9729 44.4991 68.7638 43.2666 69.5396L33.3945 75.7534C31.9447 76.6656 30.0939 75.4517 30.3525 73.7583L32.1133 62.2281Z" fill="#B9F8CF"/>
<path d="M32.0005 69.4438L126.947 69.4438C129.709 69.4438 131.947 67.2052 131.947 64.4438L131.947 44.459C131.947 41.6975 129.709 39.459 126.947 39.459L32.0005 39.459C29.2391 39.459 27.0005 41.6975 27.0005 44.459L27.0005 64.4438C27.0005 67.2052 29.2391 69.4438 32.0005 69.4438Z" fill="#B9F8CF"/>
<g clip-path="url(#clip1_1209_8554)">
<path d="M44.2405 60.3627C48.4956 61.3354 53.129 61.8895 57.3185 60.3279C60.2723 59.2274 65.844 55.7979 65.1953 52.0081C64.8864 50.2218 63.2493 48.8422 61.4075 49.1561C59.1873 49.5359 57.9285 52.0004 57.9556 54.0852C58.0212 59.2622 63.4462 61.6376 67.902 60.6921C73.4815 59.5102 78.0107 54.7052 82.2001 51.1556L79.4702 49.0437C76.7596 53.1784 76.8176 58.5299 82.1692 60.3007C87.6444 62.1143 92.4941 58.4756 96.4287 55.1159L93.525 53.4187C92.2392 58.1578 96.7646 61.2695 101.093 61.347C105.935 61.4323 111.101 59.7001 114.499 56.1777C116.055 54.5657 113.599 52.0973 112.043 53.7132C109.796 56.0421 106.761 57.255 103.595 57.6928C101.417 57.9951 95.9383 57.8052 96.8766 54.3487C97.3592 52.5739 95.2433 51.5664 93.9729 52.6514C91.4207 54.8331 88.4244 57.472 84.8334 57.2743C83.3392 57.193 81.312 56.5613 81.0263 54.8486C80.7946 53.4458 81.7445 51.9113 82.4704 50.803C83.621 49.0515 81.1653 47.4821 79.7405 48.6911C76.8562 51.1363 74.0684 53.8023 70.7825 55.7049C69.0797 56.6931 67.2186 57.6076 65.1953 57.4603C63.1721 57.3131 61.1102 55.6817 61.5117 53.4613C61.5774 53.097 62.0175 52.4964 61.6546 52.7793C61.3804 52.9924 61.06 53.5582 60.8244 53.8178C60.3032 54.3874 59.7394 54.9299 59.1294 55.4027C57.9749 56.2939 56.6659 56.9411 55.2643 57.3286C51.9552 58.247 48.4531 57.7471 45.1672 56.9953C42.9895 56.5032 42.0589 59.8667 44.2405 60.3627Z" fill="white"/>
</g>
<path d="M32.1123 140.021C32.3322 138.581 33.9685 137.851 35.1865 138.65L43.2969 143.967C44.5147 144.766 44.4981 146.556 43.2656 147.332L33.3935 153.546C31.9437 154.458 30.0929 153.244 30.3515 151.551L32.1123 140.021Z" fill="#BEDBFF"/>
<path d="M31.9995 147.236L126.946 147.236C129.708 147.236 131.946 144.998 131.946 142.236L131.946 122.252C131.946 119.49 129.708 117.252 126.946 117.252L31.9995 117.252C29.2381 117.252 26.9995 119.49 26.9995 122.252L26.9995 142.236C26.9995 144.998 29.2381 147.236 31.9995 147.236Z" fill="#BEDBFF"/>
<g clip-path="url(#clip2_1209_8554)">
<path d="M44.2405 138.363C48.4956 139.335 53.129 139.89 57.3185 138.328C60.2723 137.227 65.844 133.798 65.1953 130.008C64.8864 128.222 63.2493 126.842 61.4075 127.156C59.1873 127.536 57.9285 130 57.9556 132.085C58.0212 137.262 63.4462 139.638 67.902 138.692C73.4815 137.51 78.0107 132.705 82.2001 129.156L79.4702 127.044C76.7596 131.178 76.8176 136.53 82.1692 138.301C87.6444 140.114 92.4941 136.476 96.4287 133.116L93.525 131.419C92.2392 136.158 96.7646 139.27 101.093 139.347C105.935 139.432 111.101 137.7 114.499 134.178C116.055 132.566 113.599 130.097 112.043 131.713C109.796 134.042 106.761 135.255 103.595 135.693C101.417 135.995 95.9383 135.805 96.8766 132.349C97.3592 130.574 95.2433 129.566 93.9729 130.651C91.4207 132.833 88.4244 135.472 84.8334 135.274C83.3392 135.193 81.312 134.561 81.0263 132.849C80.7946 131.446 81.7445 129.911 82.4704 128.803C83.621 127.051 81.1653 125.482 79.7405 126.691C76.8562 129.136 74.0684 131.802 70.7825 133.705C69.0797 134.693 67.2186 135.608 65.1953 135.46C63.1721 135.313 61.1102 133.682 61.5117 131.461C61.5774 131.097 62.0175 130.496 61.6546 130.779C61.3804 130.992 61.06 131.558 60.8244 131.818C60.3032 132.387 59.7394 132.93 59.1294 133.403C57.9749 134.294 56.6659 134.941 55.2643 135.329C51.9552 136.247 48.4531 135.747 45.1672 134.995C42.9895 134.503 42.0589 137.867 44.2405 138.363Z" fill="white"/>
</g>
<path d="M145.661 100.875C145.441 99.4348 143.805 98.7049 142.587 99.5034L134.477 104.821C133.259 105.619 133.275 107.41 134.508 108.186L144.38 114.4C145.83 115.312 147.681 114.098 147.422 112.405L145.661 100.875Z" fill="#51A2FF"/>
<path d="M145.774 108.09L50.8271 108.09C48.0657 108.09 45.8271 105.851 45.8271 103.09L45.8272 83.1051C45.8272 80.3437 48.0657 78.1051 50.8271 78.1051L145.774 78.1051C148.535 78.1051 150.774 80.3437 150.774 83.1051L150.774 103.09C150.774 105.851 148.535 108.09 145.774 108.09Z" fill="#51A2FF"/>
<g clip-path="url(#clip3_1209_8554)">
<path d="M63.2405 99.3627C67.4956 100.335 72.129 100.889 76.3185 99.3278C79.2723 98.2273 84.844 94.7979 84.1953 91.0081C83.8864 89.2217 82.2493 87.8422 80.4075 88.1561C78.1873 88.5358 76.9285 91.0004 76.9556 93.0851C77.0212 98.2622 82.4462 100.638 86.902 99.6921C92.4815 98.5102 97.0107 93.7051 101.2 90.1556L98.4702 88.0437C95.7596 92.1784 95.8176 97.5298 101.169 99.3007C106.644 101.114 111.494 97.4756 115.429 94.1159L112.525 92.4186C111.239 97.1578 115.765 100.269 120.093 100.347C124.935 100.432 130.101 98.7001 133.499 95.1777C135.055 93.5656 132.599 91.0972 131.043 92.7131C128.796 95.042 125.761 96.2549 122.595 96.6928C120.417 96.9951 114.938 96.8052 115.877 93.3486C116.359 91.5739 114.243 90.5664 112.973 91.6514C110.421 93.833 107.424 96.4719 103.833 96.2743C102.339 96.1929 100.312 95.5613 100.026 93.8485C99.7946 92.4458 100.744 90.9112 101.47 89.803C102.621 88.0515 100.165 86.4821 98.7405 87.6911C95.8562 90.1362 93.0684 92.8023 89.7825 94.7049C88.0797 95.693 86.2186 96.6076 84.1953 96.4603C82.1721 96.3131 80.1102 94.6817 80.5117 92.4613C80.5774 92.097 81.0175 91.4964 80.6546 91.7793C80.3804 91.9924 80.06 92.5581 79.8244 92.8178C79.3032 93.3874 78.7394 93.9299 78.1294 94.4027C76.9749 95.2939 75.6659 95.9411 74.2643 96.3286C70.9552 97.2469 67.4531 96.7471 64.1672 95.9953C61.9895 95.5032 61.0589 98.8667 63.2405 99.3627Z" fill="white"/>
</g>
</g>
<defs>
<clipPath id="clip0_1209_8554">
<rect width="178" height="178" fill="white"/>
</clipPath>
<clipPath id="clip1_1209_8554">
<rect width="72" height="14.7097" fill="white" transform="translate(42.9971 46.6451)"/>
</clipPath>
<clipPath id="clip2_1209_8554">
<rect width="72" height="14.7097" fill="white" transform="translate(42.9971 124.645)"/>
</clipPath>
<clipPath id="clip3_1209_8554">
<rect width="72" height="14.7097" fill="white" transform="translate(61.9971 85.645)"/>
</clipPath>
</defs>
</svg>
